PathFileType	4	(X/Y/Z)	RBDS09static.trc
DataRate	CameraRate	NumFrames	NumMarkers	Units	OrigDataRate	OrigDataStartFrame	OrigNumFrames
150.000000	150.000000	4	48	mm	150.000000	131	150
Frame#	Time	L.Ankle			L.Ankle.Medial			L.ASIS			L.GTR			L.Heel.Bottom			L.Heel.Lateral			L.Heel.Top			L.HF			L.Iliac.Crest			L.Knee			L.Knee.Medial			L.MT1			L.MT2			L.MT5			L.PSIS			L.Shank.Bottom.Lateral			L.Shank.Bottom.Medial			L.Shank.Top.Lateral			L.Shank.Top.Medial			L.Thigh.Bottom.Lateral			L.Thigh.Bottom.Medial			L.Thigh.Top.Lateral			L.Thigh.Top.Medial			L.TT			R.Ankle			R.Ankle.Medial			R.ASIS			R.GTR			R.Heel.Bottom			R.Heel.Lateral			R.Heel.Top			R.HF			R.Iliac.Crest			R.Knee			R.Knee.Medial			R.MT1			R.MT2			R.MT5			R.PSIS			R.Shank.Bottom.Lateral			R.Shank.Bottom.Medial			R.Shank.Top.Lateral			R.Shank.Top.Medial			R.Thigh.Bottom.Lateral			R.Thigh.Bottom.Medial			R.Thigh.Top.Lateral			R.Thigh.Top.Medial			R.TT			
		X1	Y1	Z1	X2	Y2	Z2	X3	Y3	Z3	X4	Y4	Z4	X5	Y5	Z5	X6	Y6	Z6	X7	Y7	Z7	X8	Y8	Z8	X9	Y9	Z9	X10	Y10	Z10	X11	Y11	Z11	X12	Y12	Z12	X13	Y13	Z13	X14	Y14	Z14	X15	Y15	Z15	X16	Y16	Z16	X17	Y17	Z17	X18	Y18	Z18	X19	Y19	Z19	X20	Y20	Z20	X21	Y21	Z21	X22	Y22	Z22	X23	Y23	Z23	X24	Y24	Z24	X25	Y25	Z25	X26	Y26	Z26	X27	Y27	Z27	X28	Y28	Z28	X29	Y29	Z29	X30	Y30	Z30	X31	Y31	Z31	X32	Y32	Z32	X33	Y33	Z33	X34	Y34	Z34	X35	Y35	Z35	X36	Y36	Z36	X37	Y37	Z37	X38	Y38	Z38	X39	Y39	Z39	X40	Y40	Z40	X41	Y41	Z41	X42	Y42	Z42	X43	Y43	Z43	X44	Y44	Z44	X45	Y45	Z45	X46	Y46	Z46	X47	Y47	Z47	X48	Y48	Z48	

132	0.8733333333333334	693.4166870117188	98.36308288574219	1047.5517578125	709.8006591796875	109.4861526489258	1133.832153320313	822.4066772460938	983.6362915039063	1113.331665039063	746.445556640625	902.6783447265625	1069.597290039063	627.7742309570313	38.71183395385742	1081.559204101563	664.3377075195313	60.66136932373047	1044.087158203125	635.2150268554688	88.41973876953125	1084.033813476563	707.0528564453125	459.7463989257813	1051.651733398438	757.26025390625	1046.570068359375	1080.52197265625	707.96337890625	523.3440551757813	1058.228637695313	700.3548583984375	507.3540649414063	1187.438110351563	837.246337890625	55.08129501342773	1136.233032226563	835.7440185546875	70.03297424316406	1086.1416015625	811.0252685546875	51.64702606201172	1028.065307617188	663.3019409179688	1019.7578125	1200.665649414063	683.5515747070313	193.2662963867188	1037.465087890625	644.1683959960938	188.0664672851563	1073.095947265625	671.0169067382813	272.4611206054688	1031.932006835938	631.594970703125	268.1071472167969	1067.793334960938	684.9719848632813	642.02587890625	1056.19677734375	637.9449462890625	643.9563598632813	1112.368774414063	689.7996215820313	752.7923583984375	1059.168579101563	649.0458984375	753.8402709960938	1115.653198242188	757.22119140625	440.4435424804688	1108.222412109375	698.4996948242188	99.42319488525391	1416.51318359375	714.2658081054688	115.4971389770508	1329.017456054688	829.1154174804688	980.147705078125	1347.960083007813	759.7957763671875	898.6455078125	1394.994384765625	630.502685546875	38.04842758178711	1376.600708007813	667.3710327148438	60.43887329101563	1418.118041992188	638.5570068359375	86.48965454101563	1374.315063476563	721.396240234375	456.6956481933594	1418.759521484375	774.5462646484375	1048.772216796875	1388.777587890625	725.701416015625	523.9177856445313	1412.221313476563	699.5879516601563	503.5340576171875	1282.324462890625	835.2298583984375	59.96926879882813	1326.843139648438	843.478271484375	69.23353576660156	1372.683837890625	812.1068115234375	49.25093460083008	1436.736206054688	666.2627563476563	1014.698486328125	1276.575439453125	671.8001708984375	185.1817321777344	1417.596069335938	646.7493896484375	188.1651306152344	1372.286010742188	661.489501953125	269.1359252929688	1426.017211914063	635.8381958007813	267.8095397949219	1379.431274414063	724.769775390625	603.2941284179688	1422.76513671875	662.070556640625	601.7227783203125	1384.457763671875	721.0396118164063	713.8515014648438	1420.959594726563	662.87060546875	711.8817138671875	1383.091552734375	767.7109985351563	437.4927673339844	1361.476928710938	
133	0.88	693.409912109375	98.37410736083984	1047.54833984375	709.7951049804688	109.4842300415039	1133.828491210938	822.398193359375	983.635986328125	1113.339111328125	746.4451904296875	902.6708984375	1069.601806640625	627.77294921875	38.70377731323242	1081.5576171875	664.3368530273438	60.6585578918457	1044.0849609375	635.208984375	88.42337799072266	1084.035034179688	707.05810546875	459.7521667480469	1051.65478515625	757.2420654296875	1046.564208984375	1080.533447265625	707.9793701171875	523.3392333984375	1058.231201171875	700.3513793945313	507.3455200195313	1187.43505859375	837.2571411132813	55.07662200927734	1136.232055664063	835.7531127929688	70.03321075439453	1086.148071289063	810.7943115234375	51.45635604858398	1028.040283203125	663.2962646484375	1019.748657226563	1200.680786132813	683.5662841796875	193.2675628662109	1037.466430664063	644.1730346679688	188.0623016357422	1073.101928710938	671.125	272.2929992675781	1031.9111328125	631.596923828125	268.1082153320313	1067.788208007813	684.9684448242188	642.0396118164063	1056.203125	637.9520263671875	643.94677734375	1112.375122070313	689.8140869140625	752.7904663085938	1059.1689453125	649.05029296875	753.833984375	1115.653564453125	757.2272338867188	440.4370727539063	1108.233154296875	698.36474609375	99.49191284179688	1416.501953125	714.262939453125	115.5066909790039	1329.008056640625	829.1009521484375	980.1466064453125	1347.9599609375	759.7848510742188	898.6463623046875	1395.012451171875	630.5062866210938	38.04320907592773	1376.599609375	667.3739624023438	60.43643188476563	1418.12451171875	638.5614013671875	86.49230194091797	1374.31396484375	721.3922729492188	456.6865234375	1418.607177734375	774.5455932617188	1048.775756835938	1388.768188476563	725.6986083984375	523.917236328125	1412.229370117188	699.6004638671875	503.5182495117188	1282.341674804688	835.2378540039063	59.96866226196289	1326.85009765625	843.4759521484375	69.23294830322266	1372.680908203125	812.1150512695313	49.25125885009766	1436.73095703125	666.2423706054688	1014.691528320313	1276.57275390625	671.7958984375	185.1754608154297	1417.597534179688	646.7537231445313	188.1618041992188	1372.281127929688	661.4934692382813	269.1321411132813	1426.026123046875	635.8442993164063	267.8071594238281	1379.4306640625	724.7620239257813	603.2929077148438	1422.776733398438	662.0645141601563	601.721923828125	1384.461181640625	721.03662109375	713.8512573242188	1420.966674804688	662.8587036132813	711.8740844726563	1383.099243164063	767.710693359375	437.5002136230469	1361.480346679688	
134	0.8866666666666667	693.4100952148438	98.35826110839844	1047.5537109375	709.8094482421875	109.4814300537109	1133.847900390625	822.3873901367188	983.6369018554688	1113.344360351563	746.435791015625	902.673095703125	1069.611083984375	627.7766723632813	38.706298828125	1081.548828125	664.33251953125	60.66024017333984	1044.076171875	635.2195434570313	88.41635894775391	1084.022338867188	707.0672607421875	459.7453918457031	1051.658325195313	757.2245483398438	1046.55712890625	1080.543701171875	707.9826049804688	523.338623046875	1058.234619140625	700.3746337890625	507.3529968261719	1187.437622070313	837.2573852539063	55.08210372924805	1136.22998046875	835.7511596679688	70.03488159179688	1086.156372070313	810.8011474609375	51.45343017578125	1028.03857421875	663.28515625	1019.748413085938	1200.679931640625	683.5700073242188	193.2613830566406	1037.4677734375	644.1726684570313	188.0637817382813	1073.096313476563	671.136474609375	272.2977294921875	1031.92333984375	631.728759765625	267.8290100097656	1067.682861328125	684.983154296875	642.0289916992188	1056.204223632813	637.965576171875	643.939697265625	1112.380737304688	689.8103637695313	752.7949829101563	1059.169311523438	649.0598754882813	753.8338623046875	1115.661010742188	757.23388671875	440.4411010742188	1108.245971679688	698.37109375	99.49014282226563	1416.496337890625	714.2586059570313	115.5040969848633	1329.010498046875	829.0874633789063	980.1430053710938	1347.979614257813	759.7733154296875	898.642578125	1395.00830078125	630.50927734375	38.0492057800293	1376.60205078125	667.3720703125	60.4387321472168	1418.118408203125	638.5613403320313	86.48833465576172	1374.314331054688	721.3839111328125	456.6842956542969	1418.6220703125	774.5447387695313	1048.790283203125	1388.777465820313	725.6887817382813	523.9190673828125	1412.225708007813	699.6078491210938	503.5202331542969	1282.339477539063	835.2357788085938	59.96974563598633	1326.84033203125	843.4738159179688	69.23653411865234	1372.685791015625	812.108642578125	49.25249099731445	1436.729248046875	666.23193359375	1014.685913085938	1276.577514648438	671.8004150390625	185.170166015625	1417.601806640625	646.7599487304688	188.160888671875	1372.28271484375	661.4889526367188	269.1314392089844	1426.029541015625	635.8409423828125	267.8072509765625	1379.432373046875	724.7655029296875	603.28955078125	1422.764404296875	662.065673828125	601.7235717773438	1384.465087890625	721.0361328125	713.852294921875	1420.980224609375	662.8640747070313	711.873046875	1383.107788085938	767.7050170898438	437.5009765625	1361.478515625	
135	0.8933333333333334	693.4156494140625	98.36104583740234	1047.542358398438	709.8123168945313	109.4850006103516	1133.843505859375	822.3773193359375	983.6361694335938	1113.343139648438	746.4398193359375	902.6785888671875	1069.610229492188	627.779541015625	38.70022964477539	1081.548706054688	664.3394165039063	60.66490936279297	1044.081665039063	635.216796875	88.41543579101563	1084.037109375	707.0740966796875	459.7594604492188	1051.661254882813	757.197998046875	1046.565063476563	1080.5380859375	707.9764404296875	523.3555908203125	1058.149047851563	700.357177734375	507.3486938476563	1187.434936523438	837.2528076171875	55.09250259399414	1136.224731445313	835.7542114257813	70.03325653076172	1086.1513671875	810.7957153320313	51.45781707763672	1028.037475585938	663.2718505859375	1019.7431640625	1200.687255859375	683.579345703125	193.2693481445313	1037.465087890625	644.1822509765625	188.0636444091797	1073.100341796875	671.142578125	272.2995300292969	1031.918701171875	631.7350463867188	267.839111328125	1067.67333984375	684.9899291992188	642.0218505859375	1056.208374023438	637.9727172851563	643.9418334960938	1112.387451171875	689.81689453125	752.7910766601563	1059.180786132813	649.0609130859375	753.8253173828125	1115.67626953125	757.2603149414063	440.4541625976563	1108.253540039063	698.3696899414063	99.48847961425781	1416.503051757813	714.2634887695313	115.5094375610352	1329.012817382813	829.0759887695313	980.1445922851563	1347.971313476563	759.7762451171875	898.6438598632813	1395.025268554688	630.5094604492188	38.04150772094727	1376.604614257813	667.3773803710938	60.43465423583984	1418.120849609375	638.5604858398438	86.49283599853516	1374.3134765625	721.3720703125	456.6606750488281	1418.583251953125	774.5496826171875	1048.788330078125	1388.788818359375	725.6942138671875	523.917236328125	1412.245483398438	699.5836181640625	503.5386962890625	1282.334106445313	835.2440185546875	59.97544860839844	1326.838012695313	843.47216796875	69.23438262939453	1372.688598632813	812.123291015625	49.25634765625	1436.730590820313	666.2235717773438	1014.683227539063	1276.594360351563	671.8045654296875	185.1724700927734	1417.59765625	646.7538452148438	188.1601867675781	1372.280395507813	661.4830932617188	269.132568359375	1426.026123046875	635.8408203125	267.8059692382813	1379.4365234375	724.771484375	603.2926025390625	1422.767211914063	662.0640258789063	601.7210693359375	1384.471801757813	721.0296630859375	713.8576049804688	1420.9775390625	662.855224609375	711.8804931640625	1383.115966796875	767.7169189453125	437.4939880371094	1361.486938476563	
